<?xml version="1.0" standalone="no"?>
<!DOCTYPE svg PUBLIC "-//W3C//DTD SVG 20010904//EN"
 "http://www.w3.org/TR/2001/REC-SVG-20010904/DTD/svg10.dtd">
<svg version="1.0" xmlns="http://www.w3.org/2000/svg"
 width="1077.000000pt" height="1280.000000pt" viewBox="0 0 1077.000000 1280.000000"
 preserveAspectRatio="xMidYMid meet">
<g transform="translate(0.000000,1280.000000) scale(0.100000,-0.100000)"
fill="#000000" stroke="none">
<path d="M2525 12070 c-230 -28 -452 -142 -608 -310 -371 -401 -361 -1017 22
-1401 88 -87 142 -126 264 -190 l89 -46 1 -96 2 -97 -30 -5 c-16 -2 -73 -9
-125 -15 -434 -49 -778 -202 -969 -432 -70 -84 -139 -210 -175 -322 -49 -150
-47 -132 -156 -1366 -23 -256 -59 -661 -80 -900 l-38 -434 34 -47 c80 -109
159 -153 263 -147 81 5 158 41 281 132 l85 62 43 440 c189 1913 176 1812 244
1905 27 36 33 40 36 24 1 -11 -36 -635 -83 -1387 -69 -1104 -83 -1376 -74
-1416 5 -28 28 -80 50 -115 l39 -65 -10 -134 c-6 -73 -19 -315 -30 -538 -25
-506 -72 -1431 -105 -2080 -15 -272 -23 -522 -20 -555 17 -160 68 -305 133
-377 60 -66 68 -68 295 -68 195 0 205 1 238 23 90 60 151 200 178 407 6 47 15
399 21 790 31 2210 32 2295 44 2302 11 8 190 11 197 4 2 -2 -1 -85 -7 -183
-14 -226 -4 -283 68 -385 18 -26 18 -37 8 -195 -5 -92 -24 -438 -40 -768 -38
-759 -64 -1263 -90 -1770 -26 -492 -27 -617 -6 -716 34 -161 101 -280 179
-318 39 -19 62 -21 230 -21 212 0 233 5 286 66 87 98 129 253 141 524 5 107 9
196 10 198 0 1 48 2 108 2 98 0 111 2 144 25 106 72 178 275 178 499 0 50 -23
546 -50 1101 -27 556 -50 1034 -50 1063 l0 52 114 0 113 0 7 -337 c3 -186 11
-792 16 -1348 14 -1274 20 -1457 53 -1586 27 -102 65 -188 102 -229 17 -19 24
-42 29 -95 21 -213 116 -395 221 -424 50 -14 357 -14 405 -1 80 22 151 134
194 305 29 116 36 309 51 1525 8 674 18 1330 21 1457 l6 233 258 0 258 0 6
-72 c3 -40 12 -725 21 -1523 9 -797 21 -1486 26 -1529 20 -161 63 -291 124
-370 51 -67 87 -76 296 -76 157 0 190 3 224 19 53 23 90 69 131 156 54 117 67
190 69 375 1 139 5 176 24 235 46 145 50 210 61 1000 6 413 15 1038 20 1390 5
352 10 697 10 768 l0 127 240 0 240 0 0 -37 c0 -21 -24 -517 -54 -1103 -41
-807 -52 -1084 -45 -1145 17 -152 78 -306 146 -365 l33 -29 0 -138 c1 -331 38
-526 125 -657 59 -90 79 -96 311 -96 189 0 201 1 235 23 107 65 176 234 186
452 3 73 -7 367 -26 745 -17 344 -52 1035 -77 1535 -25 501 -46 951 -46 1000
1 77 5 98 29 150 31 68 35 131 20 368 l-8 127 150 0 149 0 42 -35 c23 -19 65
-49 95 -67 l53 -33 6 -300 c3 -165 10 -721 16 -1235 13 -1197 18 -1425 36
-1528 28 -164 96 -307 167 -351 32 -20 47 -21 241 -21 163 0 213 3 235 15 73
37 144 167 175 317 20 97 20 247 1 623 -8 160 -28 569 -45 910 -76 1542 -90
1818 -100 1883 -11 68 -11 70 20 118 55 90 56 113 26 595 -14 239 -53 868 -86
1399 -33 531 -61 975 -63 988 -5 28 -1 28 44 -3 69 -49 138 -154 158 -245 5
-25 48 -407 96 -850 127 -1192 143 -1339 149 -1349 14 -22 136 -106 196 -135
55 -26 77 -30 140 -30 92 0 149 27 233 112 l56 57 -114 1200 c-63 660 -122
1245 -131 1300 -97 595 -510 896 -1331 970 l-73 7 0 90 c0 83 2 90 21 95 40
11 179 82 242 124 80 55 202 177 257 258 165 246 217 558 139 842 -27 98 -105
258 -167 339 -250 330 -677 471 -1076 355 -310 -90 -569 -340 -667 -644 -16
-51 -32 -113 -36 -137 -5 -36 -9 -43 -23 -39 -9 3 -52 12 -94 20 -206 40 -450
0 -643 -104 -31 -17 -57 -30 -58 -28 -1 1 -7 44 -14 95 -43 338 -252 630 -556
777 -379 184 -818 114 -1123 -179 -185 -178 -293 -411 -309 -668 l-6 -97 -29
24 c-121 102 -389 195 -562 195 l-65 0 -11 43 c-62 239 -178 424 -352 562
-128 101 -268 168 -418 200 -88 18 -240 25 -325 15z"/>
</g>
</svg>
